# xmcd
#
# Track frame offsets:
#  150
#  48929
#  59755
#  78626
#  90502
#  105977
#  125136
#  134989
#  148266
#  165451
#  176488
#  200563
#  211231
#  226968
#  239137
#  255817
#  269554
#  285114
#  302907
#  313927
#
# Disc length: 4395 seconds
#
# Revision: 0
# Processed by: cddbd v1.4PL0 Copyright (c) Steve Scherf et al.
# Submitted via: AltoMP3_Maker 3.0
#
DISCID=2f112914
DTITLE=Varios - Los 100 mejores temas compilados por Bobby Flores CD1
DYEAR=1900
DGENRE=
TTITLE0=Whiskey in the jar
TTITLE1=Take out some insurance
TTITLE2=Tupelo
TTITLE3=Got my mojo working
TTITLE4=Out of the street again
TTITLE5=Boom Boom
TTITLE6=Worried life blues
TTITLE7=Got my mojo working
TTITLE8=Early in the morning
TTITLE9=Bo Diddley
TTITLE10=Stormy Monday
TTITLE11=Little red rooster
TTITLE12=Soul four
TTITLE13=Blue Monday
TTITLE14=Just landed in your town
TTITLE15=Black girl
TTITLE16=Look watcha done
TTITLE17=Lend us a quid
TTITLE18=Shake baby shake
TTITLE19=Born under a bad sign
EXTD=
EXTT0=
EXTT1=
EXTT2=
EXTT3=
EXTT4=
EXTT5=
EXTT6=
EXTT7=
EXTT8=
EXTT9=
EXTT10=
EXTT11=
EXTT12=
EXTT13=
EXTT14=
EXTT15=
EXTT16=
EXTT17=
EXTT18=
EXTT19=
PLAYORDER=
